<svg xmlns="http://www.w3.org/2000/svg" xmlns:xlink="http://www.w3.org/1999/xlink" viewBox="0 0 256.96 52.57"><defs><style>.cls-1{fill:none;}.cls-2{clip-path:url(#clip-path);}.cls-3{fill:#1d1d1b;}.cls-4{fill:#3a4c74;}</style><clipPath id="clip-path"><rect class="cls-1" width="256.96" height="52.57"/></clipPath></defs><title>Logo</title><g id="Layer_2" data-name="Layer 2"><g id="Layer_1-2" data-name="Layer 1"><g class="cls-2"><path class="cls-3" d="M85.86,25.36A4.31,4.31,0,0,1,84,27.71a8.76,8.76,0,0,1-3.17,1.08,36.91,36.91,0,0,1-5.4.32l-1.4,0a43.85,43.85,0,0,1-7.86-.54,5.46,5.46,0,0,1-3.61-2.26c-.66-1-1-2.78-1-5.4a13.87,13.87,0,0,1,.59-4.59,4.46,4.46,0,0,1,2-2.46,8,8,0,0,1,3.19-1,47.32,47.32,0,0,1,6.07-.27H74a40.55,40.55,0,0,1,8,.54,5.29,5.29,0,0,1,3.42,2.31,11.06,11.06,0,0,1,1,5.5,13.3,13.3,0,0,1-.59,4.45m3.86-10.78a7.91,7.91,0,0,0-3-3.34,11.58,11.58,0,0,0-4.4-1.4A76.34,76.34,0,0,0,74,9.49h-.76a35,35,0,0,0-7.74.59,6.47,6.47,0,0,0-3.66,2.33h-.25V0h-4V31.87h4V29h.17a6.54,6.54,0,0,0,3.73,2.53,40,40,0,0,0,8.45.59h0c3.42,0,5.9-.1,7.42-.25,3.71-.44,6.29-1.67,7.71-3.71,1.08-1.57,1.62-3.91,1.62-7a16.61,16.61,0,0,0-1.06-6.58"/><path class="cls-3" d="M123,25.33a4.5,4.5,0,0,1-1.94,2.43,8.37,8.37,0,0,1-3.29,1.06,50.11,50.11,0,0,1-6.44.3l-.34,0c-4.3,0-7.22-.25-8.72-.76a4.89,4.89,0,0,1-3-2.36,11.05,11.05,0,0,1-.89-5,13.53,13.53,0,0,1,.66-4.69,4.63,4.63,0,0,1,2.09-2.51,9.26,9.26,0,0,1,3.27-.93,53.59,53.59,0,0,1,6.09-.25H111a38.59,38.59,0,0,1,8.26.59,5.22,5.22,0,0,1,3.41,2.43,11,11,0,0,1,.93,5.16,14.08,14.08,0,0,1-.59,4.59m3.81-10.78A7.53,7.53,0,0,0,123.3,11a12.64,12.64,0,0,0-4.5-1.15c-1.74-.2-4.35-.3-7.81-.32h-1.13c-4.54,0-7.76.29-9.68.86a7.9,7.9,0,0,0-4.47,3.32c-1.06,1.6-1.6,4-1.6,7.07a15.21,15.21,0,0,0,1.11,6.46,7.26,7.26,0,0,0,3.68,3.51,14.28,14.28,0,0,0,4.5,1.13c1.74.2,4.28.3,7.59.32h.66a53.66,53.66,0,0,0,8.28-.44,11.45,11.45,0,0,0,4.13-1.43,7.13,7.13,0,0,0,2.53-2.73,13.9,13.9,0,0,0,1.3-6.71,15.29,15.29,0,0,0-1.08-6.31"/><path class="cls-3" d="M131.58,9.78h4.05V21a19,19,0,0,0,.37,4.47,4.14,4.14,0,0,0,1.5,2.16,7.12,7.12,0,0,0,3,1.16,34.84,34.84,0,0,0,5.53.34,33.56,33.56,0,0,0,7.17-.61,7.5,7.5,0,0,0,3.83-2,4.53,4.53,0,0,0,1.13-2.09,17.3,17.3,0,0,0,.32-3.68V9.78h4V31.86h-4V28.57h-.24a7.6,7.6,0,0,1-4.1,2.85,34.72,34.72,0,0,1-8.55.74,43.5,43.5,0,0,1-7.37-.49,9.75,9.75,0,0,1-4.2-1.62,5.5,5.5,0,0,1-1.92-2.83,18.52,18.52,0,0,1-.56-5.21Z"/><path class="cls-3" d="M195,24.45a4.8,4.8,0,0,1-2.16,2.41c-1.37.76-4.62,1.15-9.68,1.15h0c-4.67,0-7.69-.3-9-.86-2.26-.91-3.39-3.19-3.39-6.8s1-5.85,3-6.73c1.6-.69,4.74-1,9.48-1.06h.49c4.37,0,7.27.3,8.77.93a4.56,4.56,0,0,1,2.48,2.19,9.83,9.83,0,0,1,.71,4.25,12.78,12.78,0,0,1-.61,4.52m.64-14.67,0,2.83h-.25a6.66,6.66,0,0,0-2.53-2.09,9.33,9.33,0,0,0-3.17-.81,58.32,58.32,0,0,0-6.07-.22h-.52c-3.14,0-5.55.1-7.22.27a16.28,16.28,0,0,0-4.32.93q-5.23,2.17-5.23,9.53a14.15,14.15,0,0,0,1,5.6,8.13,8.13,0,0,0,3.1,3.49,10.93,10.93,0,0,0,4.35,1.35,61.66,61.66,0,0,0,8.06.39h.32a40.23,40.23,0,0,0,8.21-.54,7.53,7.53,0,0,0,4-2.33h.27a29.49,29.49,0,0,1-.44,4.64A4.75,4.75,0,0,1,194.07,35a6.28,6.28,0,0,1-3.66,1.57,53.51,53.51,0,0,1-7.22.42H182c-4.47,0-7.39-.34-8.82-1.06a3.1,3.1,0,0,1-1.38-1.13,4.46,4.46,0,0,1-.54-1.92H167.1a9.28,9.28,0,0,0,.25,2.36,4.45,4.45,0,0,0,1,1.65,8.17,8.17,0,0,0,4.62,2.46,46.84,46.84,0,0,0,9.53.71h.74a79.21,79.21,0,0,0,8.33-.37,11.41,11.41,0,0,0,4.54-1.4,6.54,6.54,0,0,0,3.07-4.1,37.47,37.47,0,0,0,.61-7.91V9.78Z"/></g><rect class="cls-3" x="204.37" y="9.78" width="4.03" height="22.08"/><rect class="cls-3" x="204.37" y="0.03" width="4.03" height="4.15"/><g class="cls-2"><path class="cls-3" d="M219.23,14a8.22,8.22,0,0,1,3.22-1.1,45.83,45.83,0,0,1,6-.3H229a50.31,50.31,0,0,1,6.34.32,9.26,9.26,0,0,1,3.61,1.2c1.33.86,2,2.38,2,4.55H217c.2-2.26.93-3.81,2.21-4.67m21,13.51a5.74,5.74,0,0,1-3,1.28,39.5,39.5,0,0,1-6.39.37l-1.79,0a48.28,48.28,0,0,1-6.49-.37,7.15,7.15,0,0,1-3.73-1.45c-1.13-1-1.77-2.9-1.89-5.65h28.55a23.42,23.42,0,0,0-.59-5.82,7.73,7.73,0,0,0-2-3.37,9.12,9.12,0,0,0-4.72-2.33A51.78,51.78,0,0,0,229,9.48h-.39c-4.62,0-7.91.27-9.88.84a7.68,7.68,0,0,0-4.52,3.17c-1.11,1.65-1.65,4.13-1.65,7.39,0,4.69,1.3,7.79,3.88,9.39a13,13,0,0,0,5,1.45,62.51,62.51,0,0,0,7.52.42c.71,0,1.45,0,2.24,0,5.18,0,8.82-.52,10.91-1.57a5.87,5.87,0,0,0,3.24-5.53h-4.25a3.91,3.91,0,0,1-.93,2.41"/></g><rect class="cls-4" x="251.07" y="26.09" width="5.9" height="5.9"/><rect class="cls-3" x="58.09" y="42.75" width="1.12" height="9.48"/><g class="cls-2"><path class="cls-3" d="M62.51,52.23h-1V46.34h1v1.18a4.16,4.16,0,0,1,1.11-1,2.32,2.32,0,0,1,1.19-.33,1.87,1.87,0,0,1,1.15.36,2,2,0,0,1,.69,1,4.74,4.74,0,0,1,1.17-1A2.32,2.32,0,0,1,69,46.18a1.71,1.71,0,0,1,1.43.6,2.89,2.89,0,0,1,.47,1.81v3.64h-1V48.72a2.08,2.08,0,0,0-.28-1.22,1,1,0,0,0-.9-.38,1.8,1.8,0,0,0-1.42.65,2.52,2.52,0,0,0-.57,1.72v2.75h-1V48.72a2.07,2.07,0,0,0-.28-1.22,1,1,0,0,0-.9-.38,1.81,1.81,0,0,0-1.42.65,2.52,2.52,0,0,0-.56,1.72Z"/><path class="cls-3" d="M73.79,52.23h-1V46.34h1v1.18a4.16,4.16,0,0,1,1.11-1,2.32,2.32,0,0,1,1.19-.33,1.87,1.87,0,0,1,1.15.36,2,2,0,0,1,.69,1,4.74,4.74,0,0,1,1.17-1,2.32,2.32,0,0,1,1.18-.33,1.71,1.71,0,0,1,1.43.6,2.89,2.89,0,0,1,.47,1.81v3.64h-1V48.72a2.08,2.08,0,0,0-.28-1.22,1.05,1.05,0,0,0-.9-.38,1.8,1.8,0,0,0-1.42.65A2.52,2.52,0,0,0,78,49.48v2.75H77V48.72a2.07,2.07,0,0,0-.28-1.22,1,1,0,0,0-.9-.38,1.8,1.8,0,0,0-1.42.65,2.52,2.52,0,0,0-.57,1.72Z"/><path class="cls-3" d="M84.63,49.28a2.64,2.64,0,0,0,.57,1.77,1.86,1.86,0,0,0,1.49.67,1.88,1.88,0,0,0,1.5-.67,3,3,0,0,0,0-3.53,1.88,1.88,0,0,0-1.5-.67,1.86,1.86,0,0,0-1.49.67,2.63,2.63,0,0,0-.57,1.76m-1.07,0a3.15,3.15,0,0,1,.89-2.3A3.26,3.26,0,0,1,89,47a3.44,3.44,0,0,1,0,4.62,3.26,3.26,0,0,1-4.51,0,3.15,3.15,0,0,1-.89-2.31"/><path class="cls-3" d="M92.35,51.27a4.62,4.62,0,0,0,.79.3,2.85,2.85,0,0,0,.74.1A2,2,0,0,0,95.47,51a2.87,2.87,0,0,0,.07-3.43,1.77,1.77,0,0,0-1.42-.63,2.12,2.12,0,0,0-.89.2,3.43,3.43,0,0,0-.88.61Zm-.16.81-.9.43V42.9l1.06-.28v4.19a3.3,3.3,0,0,1,.95-.51,3.37,3.37,0,0,1,1.07-.16,2.58,2.58,0,0,1,2,.87,3.16,3.16,0,0,1,.79,2.21,3.23,3.23,0,0,1-.9,2.38,3.18,3.18,0,0,1-2.37.9,3.58,3.58,0,0,1-.86-.1,3.92,3.92,0,0,1-.84-.32"/><path class="cls-3" d="M99.71,52.23H98.63V46.34l1.08-.28Zm-1.32-8.07a.78.78,0,0,1,.22-.56.73.73,0,0,1,.55-.23.78.78,0,0,1,.79.79.75.75,0,0,1-.23.55.77.77,0,0,1-.56.23.74.74,0,0,1-.54-.23.75.75,0,0,1-.23-.55"/></g><polygon class="cls-3" points="102.78 52.23 101.7 52.23 101.7 42.9 102.78 42.62 102.78 52.23"/><g class="cls-2"><path class="cls-3" d="M105.84,52.23h-1.08V46.34l1.08-.28Zm-1.32-8.07a.78.78,0,0,1,.22-.56.73.73,0,0,1,.55-.23.78.78,0,0,1,.79.79.75.75,0,0,1-.23.55.77.77,0,0,1-.56.23.77.77,0,0,1-.77-.78"/><path class="cls-3" d="M112.24,48.63a1.86,1.86,0,0,0-.5-1.29,1.65,1.65,0,0,0-1.24-.49,1.93,1.93,0,0,0-1.36.54,2.28,2.28,0,0,0-.7,1.39Zm.62,2-.06,1.06a4.25,4.25,0,0,1-1.15.63,3.73,3.73,0,0,1-1.25.21,3,3,0,0,1-2.2-.85,2.94,2.94,0,0,1-.86-2.18,3.4,3.4,0,0,1,.91-2.44,3,3,0,0,1,2.3-1,2.58,2.58,0,0,1,2,.74,2.8,2.8,0,0,1,.72,2s0,.07,0,.12,0,.1,0,.13l-.12.27-4.71.16a2.43,2.43,0,0,0,.62,1.56,2,2,0,0,0,1.45.54,3,3,0,0,0,1.17-.26,5.4,5.4,0,0,0,1.24-.78"/><path class="cls-3" d="M115.67,52.23h-1.06V46.34h1.06v1.19a3.86,3.86,0,0,1,1.15-1,2.66,2.66,0,0,1,1.3-.35,1.92,1.92,0,0,1,1.54.62,2.69,2.69,0,0,1,.53,1.79v3.64h-1.05V48.72a2,2,0,0,0-.3-1.23,1.14,1.14,0,0,0-1-.39,2.11,2.11,0,0,0-1.58.65,2.38,2.38,0,0,0-.63,1.73Z"/><path class="cls-3" d="M133.82,51.58a11,11,0,0,1-1.87.74,6.11,6.11,0,0,1-1.64.24,4.69,4.69,0,0,1-3.52-1.42,5.46,5.46,0,0,1,0-7.28,4.76,4.76,0,0,1,3.56-1.43,6.13,6.13,0,0,1,1.59.21,5.91,5.91,0,0,1,1.46.61l-.07,1.2a7,7,0,0,0-1.54-.8,4.3,4.3,0,0,0-1.44-.26,3.58,3.58,0,0,0-2.73,1.16,4.15,4.15,0,0,0-1.08,2.95,4.06,4.06,0,0,0,1,2.88,3.51,3.51,0,0,0,2.69,1.12,4.65,4.65,0,0,0,1.18-.15,6.58,6.58,0,0,0,1.25-.47V48.43h-2.85v-1h4Z"/><path class="cls-3" d="M136.63,52.23h-1V46.34h1v1.18a4.16,4.16,0,0,1,1.11-1,2.32,2.32,0,0,1,1.19-.33,1.87,1.87,0,0,1,1.15.36,2,2,0,0,1,.69,1,4.72,4.72,0,0,1,1.17-1,2.32,2.32,0,0,1,1.18-.33,1.71,1.71,0,0,1,1.43.6,2.89,2.89,0,0,1,.47,1.81v3.64h-1V48.72a2.08,2.08,0,0,0-.28-1.22,1,1,0,0,0-.9-.38,1.8,1.8,0,0,0-1.41.65,2.52,2.52,0,0,0-.57,1.72v2.75h-1V48.72a2.07,2.07,0,0,0-.28-1.22,1,1,0,0,0-.9-.38,1.8,1.8,0,0,0-1.42.65,2.52,2.52,0,0,0-.56,1.72Z"/><path class="cls-3" d="M147.93,51.27a4.62,4.62,0,0,0,.79.3,2.85,2.85,0,0,0,.74.1,2,2,0,0,0,1.59-.66,2.51,2.51,0,0,0,.6-1.76,2.49,2.49,0,0,0-.54-1.67,1.77,1.77,0,0,0-1.42-.63,2.12,2.12,0,0,0-.89.2,3.43,3.43,0,0,0-.88.61Zm-.16.81-.9.43V42.9l1.06-.28v4.19a3.3,3.3,0,0,1,.95-.51,3.37,3.37,0,0,1,1.07-.16,2.58,2.58,0,0,1,2,.87,3.16,3.16,0,0,1,.79,2.21,3.23,3.23,0,0,1-.9,2.38,3.18,3.18,0,0,1-2.37.9,3.58,3.58,0,0,1-.86-.1,3.92,3.92,0,0,1-.84-.32"/></g><polygon class="cls-3" points="154.49 52.23 154.49 42.75 155.6 42.75 155.6 46.71 160.87 46.71 160.87 42.75 161.99 42.75 161.99 52.23 160.87 52.23 160.87 47.73 155.6 47.73 155.6 52.23 154.49 52.23"/><polygon class="cls-4" points="46.73 0 40.88 0 46.73 4.84 52.57 9.68 52.57 0 46.73 0"/><g class="cls-2"><path class="cls-4" d="M0,0V47.37c5.82-.93,10.78-1.6,15.75-2l.49,0-.15-29.18L29.16,4.23,33.8,0H0Z"/><path class="cls-4" d="M46.73,15.21,37.91,8,29.16,15.8l-4.64,4.13V44.79l4.64-.15c2,0,4-.07,6.24-.07,3,0,5.72,0,8.3,0,.88,0,1.94,0,3,.07,2.09.07,4.32.17,5.85.25V20Z"/><path class="cls-4" d="M46.73,50.27c-1.16,0-2.24-.07-3.12-.1-2.56,0-5.23,0-8.18,0q-3.31,0-6.26.07c-4.67.12-8.8.32-12.95.69s-8.52.91-13.34,1.67h49.7v-2c-1.52-.1-3.78-.2-5.85-.27"/><path class="cls-3" d="M35.25,43.85c-7.59,0-13.54.27-19.46.78l-.81.07V15.82L32.38,0H30.29L13.81,15l-.22.22V44.83C9.33,45.28,5,45.87,0,46.68v1c5.93-1,10.9-1.62,15.89-2.06,5.9-.52,11.82-.74,19.36-.76,6.68,0,12.06.05,17.32.4v-1c-5.24-.34-10.62-.44-17.32-.42M52.57,10.3,40.27,0h2.19L52.57,8.47Z"/></g></g></g></svg>